<svg width="24" height="18" viewBox="0 0 24 18" fill="none" xmlns="http://www.w3.org/2000/svg">
<g clip-path="url(#clip0_734_558)">
<mask id="mask0_734_558" style="mask-type:luminance" maskUnits="userSpaceOnUse" x="0" y="0" width="24" height="18">
<path d="M24 0H0V18H24V0Z" fill="white"/>
</mask>
<g mask="url(#mask0_734_558)">
<path d="M0 3.26854V6.52801L2.52476 6.52072L5.04586 6.50979L5.05687 5.81055L5.06422 5.10768L3.4789 5.10038L1.88992 5.08946L1.87891 4.57232L1.8679 4.05152L3.45688 4.04426L5.04586 4.03333V2.57656L3.90826 2.56929C3.28439 2.56563 2.5688 2.562 2.32294 2.562L1.87156 2.55837V1.50221H5.06422V0.0090332H0V3.26854ZM5.54128 3.26854V6.52801H10.3853V5.10768H7.37615V0.0090332H5.54128V3.26854ZM10.8624 3.26854V6.52801H15.9633V5.81784C15.9633 5.42815 15.9523 5.10768 15.9376 5.10404C15.8496 5.09312 14.844 5.07853 13.8422 5.0749L12.6936 5.07127L12.7046 4.56139L12.7156 4.04789L14.3413 4.05152H15.9633V2.59478L15.3321 2.58749C14.4367 2.57656 13.7468 2.56929 13.1816 2.562L12.6936 2.55837L12.7046 2.03757L12.7156 1.52043L14.3413 1.50951L15.9633 1.50221V0.0090332H10.8624V3.26854ZM16.4404 3.26854V6.52801H18.2716L18.2569 4.82361C18.2422 2.96262 18.2385 2.99903 18.4404 3.66912C18.4954 3.84759 18.6642 4.38295 18.8147 4.85275C19.0642 5.62848 19.2954 6.36413 19.3248 6.48068C19.3358 6.51708 19.545 6.52801 20.2165 6.52801H21.0973L21.2844 5.93439C21.3908 5.61026 21.5303 5.18052 21.5963 4.9802C21.8606 4.18629 22.0477 3.58538 22.0918 3.38506C22.1174 3.27217 22.1468 3.18476 22.1578 3.19569C22.1652 3.20298 22.1725 3.95685 22.1688 4.87095L22.1615 6.52801H24L23.9927 3.2758L23.9817 0.0272517L22.7229 0.0163261C21.7358 0.0090332 21.4642 0.0163261 21.4496 0.0527358C21.4349 0.100098 21.4018 0.205695 20.833 2.0485C20.6642 2.59841 20.4624 3.26124 20.3853 3.52346C20.3119 3.78204 20.2349 4.01148 20.2202 4.02604C20.2055 4.0406 20.1248 3.81845 20.0404 3.53438C19.956 3.24668 19.6624 2.3362 19.3872 1.50951L18.8844 0.0090332H16.4404V3.26854ZM0.0146697 8.00297C0.00366055 8.02482 0.00366055 8.19963 0.00734862 8.389L0.0183578 8.73136L12.011 8.74228L24 8.74955V7.96656L12.0147 7.9629C3.10459 7.9629 0.0256789 7.97383 0.0146697 8.00297ZM0 14.0558V17.9999H24V14.0667C24 11.9034 23.989 10.1335 23.9743 10.1298C23.956 10.1298 18.5578 10.1262 11.9706 10.1225L0 10.1153V14.0558ZM23.1927 14.0667V17.2351H0.80733L0.800009 15.731C0.792661 14.908 0.792661 13.4804 0.800009 12.5626L0.80733 10.8983H23.1927V14.0667Z" fill="#FAFAFA"/>
<path d="M6.04766 12.3115L5.95227 12.3224L6.05501 12.621C6.2128 13.0726 6.49538 13.8484 6.82566 14.7588C6.99079 15.2104 7.14492 15.6329 7.16694 15.6948L7.20363 15.815H8.49905L8.63851 15.4581C8.96144 14.6314 9.75776 12.5118 9.77977 12.4171L9.80548 12.3151L9.26603 12.3261L8.72658 12.337L8.4917 12.9925C8.36328 13.3531 8.17978 13.8702 8.08805 14.1397C7.99263 14.4092 7.90455 14.6459 7.88988 14.6605C7.87519 14.6751 7.84216 14.6095 7.81648 14.5148C7.7908 14.4201 7.61466 13.9066 7.42381 13.3749C7.233 12.8432 7.07152 12.3916 7.0642 12.3661C7.0495 12.3261 6.29355 12.2824 6.04766 12.3115ZM2.5064 14.0669L2.51372 15.815H5.28437V15.0502H3.5706L3.54858 14.8062C3.53757 14.6714 3.53757 14.544 3.54858 14.5184C3.55959 14.493 3.65135 14.4747 3.80914 14.4747C3.94491 14.4747 4.33023 14.4711 4.67152 14.4711L5.28437 14.4675V13.7027H3.5229V13.12H5.32106V12.3188H2.49536L2.5064 14.0669ZM10.4587 14.0669V15.815H13.2844V15.0502H11.5229V14.4857L12.2862 14.493C12.7046 14.4966 13.1009 14.493 13.167 14.482L13.2881 14.4638L13.2771 14.0923L13.2661 13.7209L12.3963 13.71L11.5229 13.7027V13.12H13.2844V12.3188H10.4587V14.0669ZM14.1651 14.0669V15.815H15.1927V14.8681C15.1927 14.3473 15.2037 13.9212 15.222 13.9212C15.2587 13.9212 15.7211 14.5476 16.1871 15.2286L16.5762 15.7967L17.1523 15.8077L17.7248 15.8186L17.7174 14.0778L17.7064 12.337L17.2037 12.3261L16.6973 12.3151V13.2292C16.6973 14.0632 16.6899 14.1433 16.6349 14.1324C16.5835 14.1215 15.7725 13.0471 15.4018 12.4936L15.2844 12.3188H14.1651V14.0669ZM18.356 12.7085L18.367 13.1018H19.4092L19.4349 13.3713C19.4459 13.5169 19.4495 14.1288 19.4349 14.726L19.4092 15.815H20.4404V15.6329C20.4404 15.5309 20.444 14.9701 20.444 14.3837C20.444 13.801 20.455 13.2657 20.4661 13.2001L20.4844 13.0799L20.8477 13.1054C21.0422 13.1163 21.2807 13.1163 21.3725 13.1054L21.5413 13.0799V12.3188H18.3449L18.356 12.7085Z" fill="#FAFAFA"/>
</g>
</g>
<defs>
<clipPath id="clip0_734_558">
<rect width="24" height="18" fill="white"/>
</clipPath>
</defs>
</svg>
