<svg xmlns="http://www.w3.org/2000/svg" version="1.1" xmlns:xlink="http://www.w3.org/1999/xlink" xmlns:svgjs="http://svgjs.dev/svgjs" width="872" height="659"><svg width="872" height="659" viewBox="0 0 872 659" fill="none" xmlns="http://www.w3.org/2000/svg">
<path d="M0 119.667V239L91.7333 238.733L183.333 238.333L183.733 212.733L184 187L126.4 186.733L68.6667 186.333L68.2667 167.4L67.8667 148.333L125.6 148.067L183.333 147.667V121V94.3333L142 94.0667C119.333 93.9333 93.3333 93.8 84.4 93.8L68 93.6667V74.3333V55H126H184V27.6667V0.333321H92H0V119.667Z" fill="black"></path>
<path d="M201.333 119.667V239H242C264.4 239 300.4 239 322 239C343.6 239 364.934 239 369.334 239H377.334V213V187H322.667H268V93.6667V0.333321H234.667H201.333V119.667Z" fill="black"></path>
<path d="M394.667 119.667V239H487.333H580V213C580 198.733 579.6 187 579.067 186.867C575.867 186.467 539.333 185.933 502.933 185.8L461.2 185.667L461.6 167L462 148.2L521.067 148.333H580V121.667V95L557.067 94.7333C524.533 94.3333 499.467 94.0667 478.933 93.8L461.2 93.6667L461.6 74.6L462 55.6667L521.067 55.2667L580 55V27.6667V0.333321H487.333H394.667V119.667Z" fill="black"></path>
<path d="M597.333 119.667V239H630.533H663.867L663.333 176.6C662.8 108.467 662.667 109.8 670 134.333C672 140.867 678.134 160.467 683.6 177.667C692.667 206.067 701.067 233 702.134 237.267C702.534 238.6 710.134 239 734.534 239H766.534L773.334 217.267C777.2 205.4 782.267 189.667 784.667 182.333C794.267 153.267 801.067 131.267 802.667 123.933C803.6 119.8 804.667 116.6 805.067 117C805.334 117.267 805.6 144.867 805.467 178.333L805.2 239H838.534H872L871.734 119.933L871.334 0.999988L825.6 0.599988C789.734 0.333321 779.867 0.599988 779.334 1.93332C778.8 3.66665 777.6 7.53332 756.934 75C750.8 95.1333 743.467 119.4 740.667 129C738 138.467 735.2 146.867 734.667 147.4C734.134 147.933 731.2 139.8 728.134 129.4C725.067 118.867 714.4 85.5333 704.4 55.2667L686.134 0.333321H641.733H597.333V119.667Z" fill="black"></path>
<path d="M0.533422 293C0.133422 293.8 0.133422 300.2 0.266755 307.133L0.666755 319.667L436.4 320.067L872 320.333V306.067V291.667L436.533 291.533C112.8 291.533 0.933422 291.933 0.533422 293Z" fill="black"></path>
<path d="M0 514.6V659H436H872V515C872 435.8 871.6 371 871.067 370.867C870.4 370.867 674.267 370.733 434.933 370.6L0 370.333V514.6ZM842.667 515V631H436H29.3333L29.0667 575.933C28.8 545.8 28.8 493.533 29.0667 459.933L29.3333 399H436H842.667V515Z" fill="black"></path>
<path d="M219.733 450.733L216.267 451.133L220 462.067C225.733 478.6 236 507 248 540.333C254 556.867 259.6 572.333 260.4 574.6L261.733 579H285.333H308.8L313.867 565.933C325.6 535.667 354.533 458.067 355.333 454.6L356.267 450.867L336.667 451.267L317.067 451.667L308.533 475.667C303.867 488.867 297.2 507.8 293.867 517.667C290.4 527.533 287.2 536.2 286.667 536.733C286.133 537.267 284.933 534.867 284 531.4C283.067 527.933 276.667 509.133 269.733 489.667C262.8 470.2 256.933 453.667 256.667 452.733C256.133 451.267 228.667 449.667 219.733 450.733Z" fill="black"></path>
<path d="M91.0665 515L91.3332 579H141.733H192V565V551H160.8H129.733L128.933 542.067C128.533 537.133 128.533 532.467 128.933 531.533C129.333 530.6 132.667 529.933 138.4 529.933C143.333 529.933 157.333 529.8 169.733 529.8L192 529.667V515.667V501.667H160H128V491V480.333H160.667H193.333V465.667V451H142H90.6665L91.0665 515Z" fill="black"></path>
<path d="M380 515V579H431.333H482.667V565V551H450.667H418.667V540.6V530.333L446.4 530.6C461.6 530.733 476 530.6 478.4 530.2L482.8 529.533L482.4 515.933L482 502.333L450.4 501.933L418.667 501.667V491V480.333H450.667H482.667V465.667V451H431.333H380V515Z" fill="black"></path>
<path d="M514.667 515V579H533.333H552V544.333C552 525.267 552.4 509.667 553.067 509.667C554.4 509.667 571.2 532.6 588.133 557.533L602.267 578.333L623.2 578.733L644 579.133L643.733 515.4L643.333 451.667L625.067 451.267L606.667 450.867V484.333C606.667 514.867 606.4 517.8 604.4 517.4C602.533 517 573.067 477.667 559.6 457.4L555.333 451H535.067H514.667V515Z" fill="black"></path>
<path d="M666.933 465.267L667.333 479.667H686.267H705.2L706.133 489.533C706.533 494.867 706.667 517.267 706.133 539.133L705.2 579H724H742.667V572.333C742.667 568.6 742.8 548.067 742.8 526.6C742.8 505.267 743.2 485.667 743.6 483.267L744.267 478.867L757.467 479.8C764.533 480.2 773.2 480.2 776.533 479.8L782.667 478.867V464.867V451H724.667H666.533L666.933 465.267Z" fill="black"></path>
</svg><style>@media (prefers-color-scheme: light) { :root { filter: none; } }
@media (prefers-color-scheme: dark) { :root { filter: invert(100%); } }
</style></svg>